<?xml version="1.0" encoding="UTF-8" standalone="no"?>
<svg width="18px" height="18px" viewBox="0 0 18 18" version="1.1" xmlns="http://www.w3.org/2000/svg" xmlns:xlink="http://www.w3.org/1999/xlink">
    <!-- Generator: sketchtool 3.7.1 (28215) - http://www.bohemiancoding.com/sketch -->
    <title>95591C5D-AE3B-4A72-9C02-EB3487D6E449</title>
    <desc>Created with sketchtool.</desc>
    <defs></defs>
    <g id="startHere" stroke="none" stroke-width="1" fill="none" fill-rule="evenodd">
        <g id="003-详情页" transform="translate(-1145.000000, -651.000000)" fill="#555555">
            <g id="btn/#12-Pri" transform="translate(1135.000000, 644.000000)">
                <g id="msgBtn">
                    <g id="Group-13" transform="translate(10.000000, 7.000000)">
                        <g id="message" transform="translate(2.000000, 2.000000)">
                            <path d="M3.06698528,13.8880822 C3.06698528,14.4413174 3.38530419,14.5714842 3.78043512,14.1763533 L6.95678841,11 L13.9975845,11 C14.5512033,11 15,10.555163 15,10.0044225 L15,0.995577499 C15,0.445735229 14.5510798,0 13.992516,0 L1.00748397,0 C0.45106594,0 0,0.444836974 0,0.995577499 L0,10.0044225 C0,10.5542648 0.45254424,11 1.00424569,11 L3.06698528,11 L3.06698528,13.8880822 L3.06698528,13.8880822 Z M13,9 L13,2 L2,2 L2,9 L5.06698528,9 L5.06698528,10.6185623 L6.68554757,9 L13,9 L13,9 Z" id="Combined-Shape"></path>
                            <rect id="Rectangle-1078" opacity="0.5" x="4" y="4" width="7" height="1"></rect>
                            <rect id="Rectangle-1078-Copy" opacity="0.5" x="4" y="6" width="7" height="1"></rect>
                        </g>
                    </g>
                </g>
            </g>
        </g>
    </g>
</svg>