<?xml version="1.0" encoding="UTF-8" standalone="no"?>
<svg width="18px" height="18px" viewBox="0 0 18 18" version="1.1" xmlns="http://www.w3.org/2000/svg" xmlns:xlink="http://www.w3.org/1999/xlink">
    <!-- Generator: sketchtool 3.7 (28169) - http://www.bohemiancoding.com/sketch -->
    <title>C2500148-C51D-407D-BEAE-4900D3633457</title>
    <desc>Created with sketchtool.</desc>
    <defs></defs>
    <g id="startHere" stroke="none" stroke-width="1" fill="none" fill-rule="evenodd">
        <g id="005-设计师主页" transform="translate(-1050.000000, -263.000000)" fill="#B3B3B3">
            <g id="Group-12" transform="translate(1050.000000, 263.000000)">
                <g id="id" transform="translate(1.000000, 2.000000)">
                    <path d="M0,0.998502329 C0,0.44704472 0.444630861,0 1.00087166,0 L14.9991283,0 C15.5518945,0 16,0.447489426 16,0.998502329 L16,12.0014977 C16,12.5529553 15.5553691,13 14.9991283,13 L1.00087166,13 C0.448105505,13 0,12.5525106 0,12.0014977 L0,0.998502329 Z M2,2 L14,2 L14,11 L2,11 L2,2 Z" id="Combined-Shape"></path>
                    <circle id="Oval-3" cx="6" cy="5" r="2"></circle>
                    <path d="M9,10 C9,8.34314575 7.65685425,7 6,7 C4.34314575,7 3,8.34314575 3,10 L9,10 Z" id="Combined-Shape"></path>
                    <rect id="Rectangle-12" opacity="0.5" x="9" y="4" width="4" height="1"></rect>
                    <rect id="Rectangle-12-Copy" opacity="0.5" x="9" y="6" width="4" height="1"></rect>
                    <rect id="Rectangle-12-Copy-2" opacity="0.5" x="9" y="8" width="4" height="1"></rect>
                </g>
            </g>
        </g>
    </g>
</svg>