<?xml version="1.0" encoding="UTF-8" standalone="no"?>
<svg width="18px" height="18px" viewBox="0 0 18 18" version="1.1" xmlns="http://www.w3.org/2000/svg" xmlns:xlink="http://www.w3.org/1999/xlink">
    <!-- Generator: sketchtool 3.7 (28169) - http://www.bohemiancoding.com/sketch -->
    <title>5F8A75AF-F56E-4BD6-89A0-BC79980BC118</title>
    <desc>Created with sketchtool.</desc>
    <defs></defs>
    <g id="startHere" stroke="none" stroke-width="1" fill="none" fill-rule="evenodd">
        <g id="005-设计师主页" transform="translate(-1050.000000, -231.000000)" fill="#B3B3B3">
            <g id="Group-3" transform="translate(1050.000000, 231.000000)">
                <g id="time" transform="translate(1.000000, 1.000000)">
                    <path d="M8,16 C12.418278,16 16,12.418278 16,8 C16,3.581722 12.418278,0 8,0 C3.581722,0 0,3.581722 0,8 C0,12.418278 3.581722,16 8,16 Z M8,14 C11.3137085,14 14,11.3137085 14,8 C14,4.6862915 11.3137085,2 8,2 C4.6862915,2 2,4.6862915 2,8 C2,11.3137085 4.6862915,14 8,14 Z" id="Combined-Shape"></path>
                    <path d="M9,8.00922203 C9,8.55641359 8.55613518,9 8,9 L8,9 C7.44771525,9 7,8.54902482 7,8.00922203 L7,3.99077797 C7,3.44358641 7.44386482,3 8,3 L8,3 C8.55228475,3 9,3.45097518 9,3.99077797 L9,8.00922203 L9,8.00922203 Z" id="Rectangle-4"></path>
                    <path d="M11.9562684,10.5420549 C12.3431913,10.9289777 12.3429944,11.5565005 11.9497475,11.9497475 L11.9497475,11.9497475 C11.5592232,12.3402718 10.9237531,12.3379666 10.5420549,11.9562684 L7.70058582,9.11479938 C7.31366296,8.72787652 7.31385983,8.10035374 7.70710678,7.70710678 L7.70710678,7.70710678 C8.09763107,7.31658249 8.73310117,7.31888761 9.11479938,7.70058582 L11.9562684,10.5420549 L11.9562684,10.5420549 Z" id="Rectangle-4-Copy" opacity="0.5"></path>
                    <rect id="Rectangle-6" opacity="0.5" x="3" y="7" width="1" height="2"></rect>
                    <rect id="Rectangle-6-Copy" opacity="0.5" x="12" y="7" width="1" height="2"></rect>
                    <rect id="Rectangle-6-Copy-2" opacity="0.5" x="7" y="12" width="2" height="1"></rect>
                </g>
            </g>
        </g>
    </g>
</svg>